<svg xmlns="http://www.w3.org/2000/svg" width="14" height="14" viewBox="0 0 14 14">
  <path id="authorize-outline" d="M6.6,14a.6.6,0,0,1-.6-.6V6.6A.6.6,0,0,1,6.6,6h6.592a4.087,4.087,0,1,0-7.808-.311.3.3,0,0,1-.152.334L4.867,6.2l.3.3a.291.291,0,0,1,0,.412L4.581,7.5a.291.291,0,0,1-.206.086H4.083v.292A.291.291,0,0,1,4,8.081l-.583.583a.291.291,0,0,1-.206.086H2.917v.292a.291.291,0,0,1-.086.206l-.583.584a.292.292,0,0,1-.206.085H1.75v.292a.292.292,0,0,1-.085.206L.583,11.5v1.921H2.5L6,9.921v.825L2.831,13.915A.294.294,0,0,1,2.625,14H.292A.292.292,0,0,1,0,13.708V11.375a.291.291,0,0,1,.086-.206l1.081-1.082V9.625a.292.292,0,0,1,.292-.292h.463l.413-.412V8.458a.292.292,0,0,1,.292-.292h.463L3.5,7.754V7.292A.292.292,0,0,1,3.792,7h.463l.292-.292-.377-.377a.291.291,0,0,1,.076-.467L4.766,5.6a4.665,4.665,0,1,1,9,.522A.6.6,0,0,1,14,6.6v6.8a.6.6,0,0,1-.6.6Zm0-7.2v6.4a.2.2,0,0,0,.2.2h6.4a.2.2,0,0,0,.2-.2V6.8a.2.2,0,0,0-.2-.2H6.8A.2.2,0,0,0,6.6,6.8Zm7.132-.7a.588.588,0,0,0-.3-.1A.6.6,0,0,1,13.732,6.1Zm-.3-.1h0Zm-11.6,6.163a.292.292,0,0,1,0-.412L5.918,7.669A.287.287,0,0,1,6,7.611v.8L2.247,12.164a.291.291,0,0,1-.412,0Zm7.341-.671L8.045,10.362a.3.3,0,1,1,.425-.424l.923.922,2.221-2.221a.3.3,0,1,1,.424.424l-2.4,2.4a.366.366,0,0,1-.046.038.3.3,0,0,1-.412-.012Zm.157-8.284a1.458,1.458,0,1,1,1.458,1.458A1.46,1.46,0,0,1,9.333,3.209Zm.583,0a.875.875,0,1,0,.875-.875A.876.876,0,0,0,9.916,3.209Z" fill="#666"/>
</svg>
