<svg xmlns="http://www.w3.org/2000/svg" width="12.55" height="14.001" viewBox="0 0 12.55 14.001">
  <path id="consent-outline" d="M6.922,14H6.276a3.256,3.256,0,0,1,2.363-2.872A1.8,1.8,0,1,1,11.21,9.5h0s0,0,0,0,0,.016,0,.024,0,.01,0,.015v.008a1.8,1.8,0,0,1-1.017,1.57A3.244,3.244,0,0,1,12.55,14h-.634a2.5,2.5,0,0,0-4.994,0h0Zm1.3-4.5a1.2,1.2,0,1,0,1.2-1.2A1.2,1.2,0,0,0,8.22,9.506ZM5.721,14H1a1,1,0,0,1-1-1V1A1,1,0,0,1,1,0H7.172L7.4.227h0l3.1,3.1h0l.6.6V4.2h0V7.8h0a2.4,2.4,0,0,0-.6-.433V4.2H7.8a1,1,0,0,1-1-1V.6H1A.4.4,0,0,0,.6,1V13a.4.4,0,0,0,.4.4H5.806a3.1,3.1,0,0,0-.084.6h0ZM7.4,3.2a.4.4,0,0,0,.4.4H9.923L7.4,1.076ZM2.1,9.4a.3.3,0,0,1,0-.6H6.2a.3.3,0,0,1,0,.6Zm0-2a.3.3,0,0,1,0-.6H6.2a.3.3,0,0,1,0,.6Zm0-2a.3.3,0,0,1,0-.6H4.5a.3.3,0,1,1,0,.6Z" fill="#666"/>
</svg>
