<svg xmlns="http://www.w3.org/2000/svg" width="14" height="14" viewBox="0 0 14 14">
  <path id="discovery-outline" d="M13.487,13.912,9.169,9.593a5.507,5.507,0,1,1,.424-.424l4.319,4.318a.3.3,0,1,1-.425.425ZM.6,5.5A4.9,4.9,0,0,0,8.945,8.981l.017-.019a.171.171,0,0,1,.019-.017A4.9,4.9,0,1,0,.6,5.5Zm.951.274a.259.259,0,0,1,0-.308C1.621,5.37,3.3,3.1,5.456,3.1S9.29,5.37,9.36,5.467a.259.259,0,0,1,0,.308c-.07.1-1.754,2.367-3.9,2.367S1.621,5.871,1.551,5.774Zm.543-.154c.406.492,1.778,2,3.362,2s2.957-1.506,3.361-2c-.406-.493-1.778-2-3.361-2S2.5,5.127,2.093,5.621Zm1.8,0A1.565,1.565,0,1,1,5.456,7.185,1.567,1.567,0,0,1,3.891,5.621Zm.522,0A1.043,1.043,0,1,0,5.456,4.577,1.044,1.044,0,0,0,4.413,5.621Z" fill="#666"/>
</svg>
