<svg xmlns="http://www.w3.org/2000/svg" width="13.998" height="13.998" viewBox="0 0 13.998 13.998">
  <path id="git-outline" d="M6.824,13.824l-6.4-6.4a.6.6,0,0,1,0-.849l6.4-6.4a.6.6,0,0,1,.849,0l6.4,6.4a.6.6,0,0,1,0,.849l-6.4,6.4a.6.6,0,0,1-.849,0ZM1,6.859a.2.2,0,0,0,0,.284l6.116,6.116a.2.2,0,0,0,.283,0l6.116-6.116a.2.2,0,0,0,0-.284L7.4.743a.2.2,0,0,0-.284,0L5.721,2.136,6.877,3.292A1,1,0,0,1,8.2,4.62L9.776,6.192a1,1,0,1,1-.444.4L7.8,5.064a1,1,0,0,1-.2.09V9.1a1,1,0,1,1-.6,0V5.154A1,1,0,0,1,6.432,3.7L5.3,2.561Z" transform="translate(-0.249 -0.002)" fill="#666"/>
</svg>
