<svg xmlns="http://www.w3.org/2000/svg" width="14" height="14" viewBox="0 0 14 14">
  <path id="introspection-outline" d="M13.487,13.912,9.169,9.593a5.507,5.507,0,1,1,.424-.424l4.319,4.318a.3.3,0,1,1-.425.425ZM.6,5.5A4.9,4.9,0,0,0,8.945,8.981l.017-.019a.171.171,0,0,1,.019-.017A4.9,4.9,0,1,0,.6,5.5ZM4.172,7.963A.372.372,0,0,1,3.8,7.592V5.356a.372.372,0,0,1,.372-.371H4.3V4.2A1.2,1.2,0,0,1,5.494,3h.087a1.2,1.2,0,0,1,1.2,1.2v.292h-.5V4.2a.7.7,0,0,0-.7-.7H5.494a.7.7,0,0,0-.7.7v.788H6.9a.372.372,0,0,1,.372.371V7.592a.372.372,0,0,1-.372.371Zm.125-.5H6.778V5.482H4.3Z" fill="#666"/>
</svg>
