<svg xmlns="http://www.w3.org/2000/svg" width="14" height="14" viewBox="0 0 14 14">
  <path id="jwks-outline" d="M.292,14A.292.292,0,0,1,0,13.708V11.375a.291.291,0,0,1,.086-.206l1.081-1.082V9.625a.292.292,0,0,1,.292-.292h.463l.413-.412V8.458a.292.292,0,0,1,.292-.292h.463L3.5,7.754V7.292A.292.292,0,0,1,3.792,7h.463l.292-.292-.377-.377a.291.291,0,0,1,.076-.467L4.766,5.6A4.665,4.665,0,1,1,14,4.667,4.685,4.685,0,0,1,12.37,8.213a7.612,7.612,0,0,0-.89-.064A4.1,4.1,0,1,0,5.385,5.689a.3.3,0,0,1-.152.334L4.867,6.2l.3.3a.291.291,0,0,1,0,.412L4.581,7.5a.291.291,0,0,1-.206.086H4.083v.292A.291.291,0,0,1,4,8.081l-.583.583a.291.291,0,0,1-.206.086H2.917v.292a.291.291,0,0,1-.086.206l-.583.584a.292.292,0,0,1-.206.085H1.75v.292a.292.292,0,0,1-.085.206L.583,11.5v1.921H2.5L7.086,8.835a.291.291,0,0,1,.412,0l.3.3.183-.365a.293.293,0,0,1,.261-.161.279.279,0,0,1,.073.009,4.266,4.266,0,0,0,.775.126A.455.455,0,0,0,9,9.01V9.32a4.792,4.792,0,0,1-.6-.086l-.26.521a.29.29,0,0,1-.214.158.3.3,0,0,1-.049,0,.292.292,0,0,1-.2-.085l-.377-.377-4.46,4.46A.294.294,0,0,1,2.625,14ZM9,13.129V9.009c0-.834,2.157-.859,2.4-.859s2.4.024,2.4.859v4.12c0,.834-2.158.859-2.4.859S9,13.964,9,13.129Zm.515,0a3.711,3.711,0,0,0,1.889.344,3.283,3.283,0,0,0,1.9-.376l0-.772a5.855,5.855,0,0,1-1.894.29,5.889,5.889,0,0,1-1.889-.287Zm0-1.373A3.711,3.711,0,0,0,11.4,12.1a3.341,3.341,0,0,0,1.893-.373v-.774a5.888,5.888,0,0,1-1.892.288,5.889,5.889,0,0,1-1.889-.287Zm0-1.373a3.711,3.711,0,0,0,1.889.344,3.381,3.381,0,0,0,1.891-.37l0-.776a5.892,5.892,0,0,1-1.889.287,5.889,5.889,0,0,1-1.889-.287Zm.023-1.373a3.753,3.753,0,0,0,1.867.343,3.756,3.756,0,0,0,1.867-.343A3.741,3.741,0,0,0,11.4,8.665,3.738,3.738,0,0,0,9.537,9.009Zm-7.7,3.155a.292.292,0,0,1,0-.412L5.918,7.669a.291.291,0,1,1,.412.412L2.247,12.164a.291.291,0,0,1-.412,0Zm7.5-8.956a1.458,1.458,0,1,1,1.458,1.458A1.46,1.46,0,0,1,9.333,3.209Zm.583,0a.875.875,0,1,0,.875-.875A.876.876,0,0,0,9.916,3.209Z" fill="#666"/>
</svg>
