<svg xmlns="http://www.w3.org/2000/svg" width="11.804" height="14" viewBox="0 0 11.804 14">
  <path id="login-attempts-outline" d="M5.734,13.964a17.708,17.708,0,0,1-2.819-1.651A9.744,9.744,0,0,1,.946,10.489,3.9,3.9,0,0,1,0,8.1V2.057a.41.41,0,0,1,.293-.392L5.784.017a.42.42,0,0,1,.236,0l5.491,1.648a.41.41,0,0,1,.292.392V8.1a3.9,3.9,0,0,1-.945,2.39,9.775,9.775,0,0,1-1.97,1.825A17.708,17.708,0,0,1,6.07,13.964.418.418,0,0,1,5.9,14,.422.422,0,0,1,5.734,13.964ZM.6,2.14V8.1c0,1.391,1.5,2.913,2.67,3.762A17,17,0,0,0,5.9,13.36a16.992,16.992,0,0,0,2.637-1.5c1.17-.849,2.66-2.372,2.66-3.762V2.14L5.9.62ZM5.6,9.4a.3.3,0,1,1,.3.3A.3.3,0,0,1,5.6,9.4Zm0-.9v-5h.6v5Z" transform="translate(0 0)" fill="#666"/>
</svg>
