<svg xmlns="http://www.w3.org/2000/svg" width="10" height="14" viewBox="0 0 10 14">
  <path id="password-policies-outline" d="M.5,14a.5.5,0,0,1-.5-.5v-8A.5.5,0,0,1,.5,5H2V2.95H2a3,3,0,0,1,6,0V5H9.5a.5.5,0,0,1,.5.5v8a.5.5,0,0,1-.5.5ZM.6,5.7v7.6a.1.1,0,0,0,.1.1H9.3a.1.1,0,0,0,.1-.1V5.7a.1.1,0,0,0-.1-.1H.7A.1.1,0,0,0,.6,5.7Zm2-2.75V5H7.4V3A2.4,2.4,0,0,0,2.6,2.95Zm-1.1,9.2v-.6h6v.6ZM6,10.95v-.6H8v.6Zm-4.5,0v-.6h4v.6ZM4,9.75v-.6H7v.6Zm-2.5,0v-.6h2v.6ZM5,8.55v-.6H8v.6Zm-3.5,0v-.6h3v.6Zm0-1.2v-.6h4v.6Z" fill="#666"/>
</svg>
