<svg xmlns="http://www.w3.org/2000/svg" width="14" height="14" viewBox="0 0 14 14">
  <path id="target-outline" d="M6.7,13.7v-.407A6.309,6.309,0,0,1,.707,7.3H.3a.3.3,0,0,1,0-.6H.707A6.309,6.309,0,0,1,6.7.707V.3a.3.3,0,1,1,.6,0V.707A6.309,6.309,0,0,1,13.293,6.7H13.7a.3.3,0,1,1,0,.6h-.407A6.309,6.309,0,0,1,7.3,13.293V13.7a.3.3,0,1,1-.6,0Zm.6-1.4v.391A5.707,5.707,0,0,0,12.692,7.3H12.3a.3.3,0,1,1,0-.6h.391A5.707,5.707,0,0,0,7.3,1.309V1.7a.3.3,0,1,1-.6,0V1.309A5.707,5.707,0,0,0,1.308,6.7H1.7a.3.3,0,0,1,0,.6H1.308A5.707,5.707,0,0,0,6.7,12.692V12.3a.3.3,0,1,1,.6,0ZM6.7,9.8V8.623A1.656,1.656,0,0,1,5.377,7.3H4.2a.3.3,0,0,1,0-.6H5.377A1.653,1.653,0,0,1,6.7,5.378V4.2a.3.3,0,0,1,.6,0V5.378A1.653,1.653,0,0,1,8.622,6.7H9.8a.3.3,0,0,1,0,.6H8.622A1.654,1.654,0,0,1,7.3,8.623V9.8a.3.3,0,0,1-.6,0ZM5.95,7A1.05,1.05,0,1,0,7,5.95,1.051,1.051,0,0,0,5.95,7Z" fill="#666"/>
</svg>
