<svg xmlns="http://www.w3.org/2000/svg" width="9.3" height="14" viewBox="0 0 9.3 14">
  <path id="user-role-outline" d="M1,13.9a1,1,0,0,1-1-1V2.9a1,1,0,0,1,1-1H3.63v-2h2v2H8.3a1,1,0,0,1,1,1v10a1,1,0,0,1-1,1ZM.6,2.9v10a.4.4,0,0,0,.4.4H8.3a.4.4,0,0,0,.4-.4V2.9a.4.4,0,0,0-.4-.4H5.629V3.7h-2V2.5H1A.4.4,0,0,0,.6,2.9ZM4.139.87a.5.5,0,1,0,.5-.5A.5.5,0,0,0,4.139.87ZM1.735,12h-.6A3.5,3.5,0,0,1,3.814,8.8a2.035,2.035,0,1,1,1.639,0A3.5,3.5,0,0,1,8.124,12l-.6,0a2.9,2.9,0,0,0-5.787,0h0ZM3.2,6.935A1.435,1.435,0,1,0,4.635,5.5,1.437,1.437,0,0,0,3.2,6.935Z" transform="translate(0 0.1)" fill="#666"/>
</svg>
