<svg xmlns="http://www.w3.org/2000/svg" width="225" height="183.888" viewBox="0 0 225 183.888">
  <g id="landing-page-illustration" transform="translate(-902 -233)">
    <rect id="Rectangle_9" data-name="Rectangle 9" width="69" height="33" transform="translate(999 233)" fill="#ff5e2c"/>
    <g id="paint-brush" transform="translate(919.526 233.029)">
      <path id="Path_3" data-name="Path 3" d="M107.457,275.825l12.921,12.432,42.479-28.538-.5-2.94-22.09-22.832-3.766-.583Z" transform="translate(-55.854 -148.144)" fill="#1952a5"/>
      <path id="Path_4" data-name="Path 4" d="M294.473,4.091h0c4.758,4.758,5.463,11.879,1.6,16.146l-82.727,91.338L186.989,85.219,278.328,2.493C282.6-1.373,289.715-.668,294.473,4.091Z" transform="translate(-106.342 0)" fill="#ffad6a"/>
      <path id="SVGCleanerId_0" d="M32.359,344.364a21.316,21.316,0,0,1,30.146,0c8.325,8.325,8.891,22.429,0,30.146-5.821,5.053-15.157,6.064-20.646,7.029a17.634,17.634,0,0,0-11.921,8.215,45.885,45.885,0,0,0-3.96,8.75h0a44.008,44.008,0,0,1,6.383-54.142" transform="translate(0 -214.647)" fill="#ff5e2c"/>
      <path id="Path_5" data-name="Path 5" d="M327.425,4.092c-4.734-4.734-11.805-5.454-16.08-1.655a14.66,14.66,0,0,1,1.976,1.655c4.758,4.758,5.463,11.879,1.6,16.146L238.9,104.176l7.4,7.4,82.727-91.338C332.888,15.971,332.183,8.85,327.425,4.092Z" transform="translate(-139.294 -0.002)" fill="#ea875c"/>
      <path id="Path_6" data-name="Path 6" d="M155.435,285.214,113.822,313.17l-5.666-5.451-.7,1.022,12.921,12.432,42.478-28.538Z" transform="translate(-55.854 -181.061)" fill="#03427a"/>
      <g id="Group_3" data-name="Group 3" transform="translate(19.474 123.474)">
        <path id="SVGCleanerId_0_1_" d="M32.359,344.364a21.316,21.316,0,0,1,30.146,0c8.325,8.325,8.891,22.429,0,30.146-5.821,5.053-15.157,6.064-20.646,7.029a17.634,17.634,0,0,0-11.921,8.215,45.885,45.885,0,0,0-3.96,8.75h0a44.008,44.008,0,0,1,6.383-54.142" transform="translate(-19.474 -338.121)" fill="#ff5e2c"/>
      </g>
      <path id="Path_7" data-name="Path 7" d="M63.594,345a21.212,21.212,0,0,0-11.151-5.878c.122.116.246.228.365.347,8.325,8.325,8.891,22.429,0,30.146-5.821,5.053-15.157,6.064-20.646,7.029A17.3,17.3,0,0,0,21.191,383.5a43.766,43.766,0,0,0,5.875,15.646h0a45.886,45.886,0,0,1,3.96-8.75,17.634,17.634,0,0,1,11.921-8.215c5.489-.965,14.824-1.977,20.646-7.029C72.485,367.428,71.918,353.324,63.594,345Z" transform="translate(-1.09 -215.282)" fill="#f44242"/>
    </g>
    <g id="Rectangle_10" data-name="Rectangle 10" transform="translate(1096 294)" fill="none" stroke="#1952a5" stroke-width="1">
      <rect width="31" height="31" rx="15.5" stroke="none"/>
      <rect x="0.5" y="0.5" width="30" height="30" rx="15" fill="none"/>
    </g>
    <g id="Polygon_1" data-name="Polygon 1" transform="translate(902 292)" fill="none">
      <path d="M16,0,32,28H0Z" stroke="none"/>
      <path d="M 16 2.015560150146484 L 1.723176956176758 27 L 30.27682304382324 27 L 16 2.015560150146484 M 16 0 L 32 28 L 0 28 L 16 0 Z" stroke="none" fill="#fff"/>
    </g>
    <rect id="Rectangle_11" data-name="Rectangle 11" width="27" height="27" transform="translate(1076 361)" fill="#ffad6a"/>
    <g id="programming" transform="translate(978.093 306.187)">
      <g id="Group_4" data-name="Group 4" transform="translate(0 68.7)">
        <path id="Path_8" data-name="Path 8" d="M57.407,76.826v25.75a8.135,8.135,0,0,1-8.124,8.126H8.125A8.135,8.135,0,0,1,0,102.576V76.826A8.135,8.135,0,0,1,8.125,68.7H49.283A8.135,8.135,0,0,1,57.407,76.826Z" transform="translate(0 -68.7)" fill="#1952a5"/>
      </g>
      <path id="Path_9" data-name="Path 9" d="M284.7,76.826v25.75a8.135,8.135,0,0,1-8.124,8.126H256v-42h20.579A8.135,8.135,0,0,1,284.7,76.826Z" transform="translate(-227.296)" fill="#03427a"/>
      <g id="Group_5" data-name="Group 5" transform="translate(7.105 78.756)">
        <path id="Path_10" data-name="Path 10" d="M72.65,179.781l-8.791-8.79a1.682,1.682,0,0,1,0-2.378l9.736-9.736a1.682,1.682,0,0,1,2.378,2.378L67.427,169.8l7.6,7.6a1.682,1.682,0,0,1-2.378,2.378Z" transform="translate(-63.367 -158.384)" fill="#f0f7ff"/>
      </g>
      <g id="Group_6" data-name="Group 6" transform="translate(37.203 78.756)">
        <path id="Path_11" data-name="Path 11" d="M332.293,179.78a1.682,1.682,0,0,1,0-2.378l8.547-8.547-7.6-7.6a1.682,1.682,0,1,1,2.378-2.378l8.79,8.791a1.682,1.682,0,0,1,0,2.378l-9.736,9.736A1.682,1.682,0,0,1,332.293,179.78Z" transform="translate(-331.801 -158.382)" fill="#dfe7f4"/>
      </g>
      <g id="Group_7" data-name="Group 7" transform="translate(22.545 75.427)">
        <path id="Path_12" data-name="Path 12" d="M213.232,130.942l-6,17-2.891,8.184a1.682,1.682,0,0,1-3.172-1.12l6.063-17.166,2.831-8.016a1.682,1.682,0,1,1,3.172,1.12Z" transform="translate(-201.07 -128.7)" fill="#f0f7ff"/>
      </g>
      <path id="Path_13" data-name="Path 13" d="M262,130.942l-6,17v-10.1l2.831-8.016a1.682,1.682,0,0,1,3.172,1.12Z" transform="translate(-227.296 -53.272)" fill="#dfe7f4"/>
    </g>
    <g id="download-button" transform="translate(952.511 262)">
      <path id="Path_14" data-name="Path 14" d="M27.462,19.1v8.848H2.515V19.1H.489v8.861a2.012,2.012,0,0,0,2.016,2.012H27.472a2.012,2.012,0,0,0,2.016-2.012V19.1Z" fill="#ea875c"/>
      <path id="Path_15" data-name="Path 15" d="M14.62,18.426,8.856,11.461s-.877-.828.074-.828h5.248V.494S14.049,0,14.793,0h.572c.536,0,.524.416.524.416V10.424h5c1.154,0,.285.867.285.867s-4.9,6.51-5.588,7.193A.639.639,0,0,1,14.62,18.426Z" fill="#ea875c"/>
    </g>
  </g>
</svg>
