<svg xmlns="http://www.w3.org/2000/svg" width="173.88" height="14.783" viewBox="0 0 173.88 14.783">
  <g id="Group_2" data-name="Group 2" transform="translate(-412 124.727)">
    <g id="full-logo" transform="translate(10.5 -513.707)">
      <path id="Path_264" data-name="Path 264" d="M716.5,388.98l.492.853-.545.945h1.09l.494.853H714.97Z" transform="translate(-233.649 0)" fill="#ff7300"/>
      <path id="Path_265" data-name="Path 265" d="M705.95,391.631l.494-.853h1.09l-.545-.945.491-.853,1.533,2.651Z" transform="translate(-226.925 0)" fill="#ff7300"/>
      <path id="Path_266" data-name="Path 266" d="M712.538,399.441l-.545-.945-.547.945h-.985l1.533-2.651,1.53,2.651Z" transform="translate(-230.287 -5.821)" fill="#fff"/>
      <path id="Path_267" data-name="Path 267" d="M445.61,408.911v-1.984h5.006a.833.833,0,0,0,0-1.665h-2.19a2.816,2.816,0,0,1,0-5.633h5.006v1.984h-5.006a.82.82,0,0,0-.588.242.833.833,0,0,0,.588,1.423h2.19a2.816,2.816,0,1,1,0,5.633Z" transform="translate(-32.878 -7.938)" fill="#fff"/>
      <path id="Path_268" data-name="Path 268" d="M483.514,408.908a4.642,4.642,0,1,1,0-9.282h3.911v1.984h-3.911a2.658,2.658,0,0,0,0,5.314h1.93v-1.665h-1.459v-1.973h3.443v5.633Z" transform="translate(-57.589 -7.934)" fill="#fff"/>
      <path id="Path_269" data-name="Path 269" d="M568.2,408.912l-4.477-4.436v4.436H561.74V399.63h5.006a2.816,2.816,0,0,1,1.991,4.808,3.009,3.009,0,0,1-.795.573l-.591.288,3.621,3.613Zm-1.454-5.622a.833.833,0,1,0,0-1.665h-3.023v1.665Z" transform="translate(-119.437 -7.938)" fill="#fff"/>
      <path id="Path_270" data-name="Path 270" d="M600.89,408.908v-9.282H604.8a4.642,4.642,0,1,1,0,9.282Zm3.911-1.984a2.658,2.658,0,0,0,0-5.314h-1.928v5.314Z" transform="translate(-148.618 -7.934)" fill="#fff"/>
      <path id="Path_271" data-name="Path 271" d="M674.971,408.932a4.637,4.637,0,1,1,3.282-1.36A4.428,4.428,0,0,1,674.971,408.932Zm0-7.3a2.661,2.661,0,1,0,1.877.779A2.58,2.58,0,0,0,674.971,401.635Z" transform="translate(-200.38 -7.959)" fill="#fff"/>
      <path id="Path_272" data-name="Path 272" d="M401.5,408.911h2.218l3.142-5.442,3.14,5.442h2.215l-5.355-9.282Z" transform="translate(0 -7.938)" fill="#fff"/>
      <path id="Path_273" data-name="Path 273" d="M516.16,408.912h2.218l3.14-5.442,3.14,5.442h2.218l-5.358-9.282Z" transform="translate(-85.463 -7.938)" fill="#fff"/>
      <path id="Path_274" data-name="Path 274" d="M637.84,408.9V399.65h7.754v1.966h-5.775v1.7h4.331v1.92h-4.331v1.7h5.775V408.9Z" transform="translate(-176.159 -7.953)" fill="#fff"/>
    </g>
    <path id="Path_2" data-name="Path 2" d="M5.278-8.918A8.236,8.236,0,0,0,4.134-8.97h-2.9V0H4.082A8.236,8.236,0,0,0,5.226-.052c2.08-.26,3.666-1.859,3.666-4.537C8.892-7.306,7.358-8.671,5.278-8.918ZM4.979-1.2a5.83,5.83,0,0,1-1.027.052H2.665v-6.7H4a5.745,5.745,0,0,1,1.027.065c1.43.208,2.327,1.3,2.327,3.185C7.358-2.6,6.422-1.4,4.979-1.2ZM16.185-3.627c0-1.95-1.079-3.458-3.081-3.458a3.354,3.354,0,0,0-3.38,3.653c0,2.444,1.391,3.614,3.237,3.614a2.933,2.933,0,0,0,3.12-2.418H14.638A1.571,1.571,0,0,1,13.013-.858c-.936,0-1.69-.546-1.807-2.2h4.953A5.167,5.167,0,0,0,16.185-3.627ZM13.052-6.045c1,0,1.56.715,1.664,1.989h-3.5C11.375-5.382,12.077-6.045,13.052-6.045Zm6.721-1.04c-1.534,0-2.548.78-2.548,2.067,0,1.209.936,1.742,2.2,2.067,1.17.312,1.638.637,1.638,1.235s-.533.884-1.2.884A1.384,1.384,0,0,1,18.4-2.067H16.952c.195,1.56,1.326,2.249,2.86,2.249,1.508,0,2.691-.663,2.691-2,0-1.222-.793-1.82-2.3-2.21-1.027-.273-1.534-.533-1.534-1.157,0-.52.325-.9,1-.9a1.25,1.25,0,0,1,1.274,1.157H22.4A2.392,2.392,0,0,0,19.773-7.085Zm4.68-2.223a.8.8,0,0,0-.832.819.806.806,0,0,0,.832.832.817.817,0,0,0,.845-.832A.814.814,0,0,0,24.453-9.308ZM25.168,0V-6.9h-1.43V0Zm8.177-6.9h-1.43v.936l-.455-.689a3.034,3.034,0,0,0-1.638-.429c-1.781,0-3.341,1.2-3.341,3.718,0,2.028,1.157,3.484,3.146,3.484A2.975,2.975,0,0,0,31.4-.4l.52-.754v.143c0,.247,0,.494-.013.793A1.818,1.818,0,0,1,29.887,1.69c-1.066,0-1.7-.507-1.794-1.248L28.08.325h-1.4l.013.13c.143,1.482,1.2,2.314,3.185,2.314,2.08,0,3.38-1.053,3.458-3.146.013-.377.013-.91.013-1.339ZM29.913-.923C28.678-.923,27.989-2,27.989-3.5c0-1.716.858-2.548,1.989-2.548.923,0,1.937.624,1.937,2.3v.3C31.915-1.6,30.992-.923,29.913-.923ZM41.275-5.109a2.181,2.181,0,0,0-2.457-1.976,2.6,2.6,0,0,0-1.742.533l-.468.793V-6.9h-1.43V0h1.43V-3.094c0-2.158.806-2.938,1.794-2.938a1.308,1.308,0,0,1,1.456,1.326c.026.351.026.65.026.975V0h1.43V-3.887C41.314-4.446,41.3-4.758,41.275-5.109Zm7.67-4.043c-1.677,0-3.094.975-3.094,2.561,0,1.56,1.131,2.2,2.834,2.6,1.456.338,2,.819,2,1.755,0,.819-.741,1.326-1.677,1.326A1.987,1.987,0,0,1,46.943-2.6H45.461C45.643-.793,46.956.182,49.01.182c1.742,0,3.185-.988,3.185-2.613,0-1.5-.936-2.34-2.912-2.8-1.391-.325-1.924-.728-1.924-1.6,0-.845.663-1.235,1.508-1.235a1.632,1.632,0,0,1,1.742,1.638h1.482A2.884,2.884,0,0,0,48.945-9.152ZM59.514-6.9H57.967L56.082-1.066,54.184-6.9h-1.6L55.367.325l-.1.247a1.387,1.387,0,0,1-1.4,1.079c-.143,0-.286,0-.455-.013V2.691a3.5,3.5,0,0,0,.676.039c1.248,0,1.989-.65,2.626-2.288Zm3.159-.182c-1.534,0-2.548.78-2.548,2.067,0,1.209.936,1.742,2.2,2.067,1.17.312,1.638.637,1.638,1.235s-.533.884-1.2.884a1.384,1.384,0,0,1-1.469-1.235H59.852c.195,1.56,1.326,2.249,2.86,2.249,1.508,0,2.691-.663,2.691-2,0-1.222-.793-1.82-2.3-2.21-1.027-.273-1.534-.533-1.534-1.157,0-.52.325-.9,1-.9a1.25,1.25,0,0,1,1.274,1.157H65.3A2.392,2.392,0,0,0,62.673-7.085ZM68.341-5.85h1.352v-1H68.341V-8.5H66.924v1.651h-.975v1h.975v3.744c0,.39,0,.689.013.923C67-.273,67.47.13,68.549.13A7.31,7.31,0,0,0,69.6.052V-.936c-.936.091-1.2-.052-1.248-.728-.013-.182-.013-.338-.013-.572Zm8.437,2.223c0-1.95-1.079-3.458-3.081-3.458a3.354,3.354,0,0,0-3.38,3.653c0,2.444,1.391,3.614,3.237,3.614a2.933,2.933,0,0,0,3.12-2.418H75.231A1.571,1.571,0,0,1,73.606-.858c-.936,0-1.69-.546-1.807-2.2h4.953A5.169,5.169,0,0,0,76.778-3.627ZM73.645-6.045c1,0,1.56.715,1.664,1.989h-3.5C71.968-5.382,72.67-6.045,73.645-6.045Zm14.17.65a2,2,0,0,0-2.158-1.69,2.342,2.342,0,0,0-1.469.4l-.637.91A1.987,1.987,0,0,0,81.51-7.085a2.293,2.293,0,0,0-1.469.4l-.468.806V-6.9h-1.43V0h1.43V-3.471c0-1.872.546-2.561,1.391-2.561A1.185,1.185,0,0,1,82.251-4.9,11.2,11.2,0,0,1,82.3-3.653V0H83.72V-3.471c0-1.872.559-2.561,1.391-2.561A1.178,1.178,0,0,1,86.4-4.9a11.2,11.2,0,0,1,.052,1.248V0h1.43V-4.173A7.813,7.813,0,0,0,87.815-5.4Z" transform="translate(498 -112.714)" fill="#fff"/>
  </g>
</svg>
